<?xml version="1.0" standalone="no"?>
<!DOCTYPE svg PUBLIC "-//W3C//DTD SVG 20010904//EN"
 "http://www.w3.org/TR/2001/REC-SVG-20010904/DTD/svg10.dtd">
<svg version="1.0" xmlns="http://www.w3.org/2000/svg"
 width="500.000000pt" height="431.000000pt" viewBox="0 0 500.000000 431.000000"
 preserveAspectRatio="xMidYMid meet">

<g transform="translate(0.000000,431.000000) scale(0.100000,-0.100000)"
fill="#000000" stroke="none">
<path d="M3015 4299 c-241 -23 -503 -174 -664 -383 -24 -31 -47 -56 -51 -56
-4 0 -16 19 -26 42 -26 57 -121 184 -173 231 -66 59 -155 113 -229 139 -93 32
-248 32 -342 -1 -254 -88 -445 -322 -505 -620 -22 -107 -16 -352 10 -451 46
-169 133 -321 254 -441 113 -112 221 -179 221 -136 0 8 -10 22 -21 33 -74 66
-163 215 -205 344 -26 78 -28 98 -28 245 -1 184 10 242 73 370 114 233 373
347 571 251 118 -56 243 -183 325 -331 20 -36 43 -65 51 -65 7 0 32 26 56 58
193 263 409 384 657 369 209 -12 331 -122 377 -337 73 -342 -187 -696 -626
-855 -41 -14 -140 -42 -220 -61 -218 -52 -350 -98 -505 -174 -203 -101 -366
-227 -487 -378 -110 -137 -219 -353 -198 -392 18 -34 47 -24 71 22 62 123 179
258 299 347 195 145 423 224 824 287 308 48 490 98 673 184 139 66 228 125
324 217 130 124 210 252 262 418 40 128 52 218 51 385 0 168 -16 252 -70 366
-121 257 -418 404 -749 373z"/>
<path d="M185 2641 c-163 -16 -187 -21 -178 -40 4 -9 9 -586 11 -1283 l2
-1268 530 0 c514 0 531 1 586 21 138 52 199 179 211 437 l6 132 -322 0 -321 0
0 923 c0 878 -1 924 -19 963 -23 51 -62 79 -133 98 -69 18 -268 27 -373 17z"/>
<path d="M2357 2095 c-544 -92 -864 -548 -833 -1190 10 -231 45 -385 124 -545
78 -160 225 -288 379 -329 244 -66 502 0 680 175 36 36 67 63 68 62 1 -2 10
-25 20 -53 26 -70 105 -146 175 -171 74 -25 196 -23 274 6 129 49 196 138 204
271 5 79 4 79 -20 79 -36 0 -73 32 -94 82 -17 40 -19 91 -24 778 l-5 734 -89
28 c-105 32 -249 63 -366 77 -114 15 -397 12 -493 -4z m312 -520 c8 -4 11
-159 11 -491 l0 -484 -47 -30 c-93 -59 -189 -64 -290 -15 -126 62 -194 251
-180 500 16 269 128 465 300 521 42 14 184 13 206 -1z"/>
<path d="M4570 2094 c-123 -33 -250 -124 -306 -221 -14 -23 -29 -43 -33 -43
-4 0 -20 54 -36 120 l-29 120 -243 0 -243 0 2 -1012 3 -1013 328 -3 327 -2 0
694 0 695 38 30 c102 85 299 109 518 65 31 -6 32 -5 53 58 25 76 51 205 51
257 0 108 -53 206 -133 246 -44 22 -63 25 -146 24 -53 0 -121 -7 -151 -15z"/>
</g>
</svg>
